<svg width="34" height="34" viewBox="0 0 34 34" fill="none" xmlns="http://www.w3.org/2000/svg">
<path d="M17 0C7.62646 0 0 7.62581 0 17C0 26.3742 7.62646 34 17 34C26.3735 34 34 26.3742 34 17C34 7.62581 26.3735 0 17 0ZM18.3077 26.8077C18.3077 27.5295 17.7218 28.1154 17 28.1154C16.2782 28.1154 15.6923 27.5295 15.6923 26.8077V25.5C15.6923 24.7782 16.2782 24.1923 17 24.1923C17.7218 24.1923 18.3077 24.7782 18.3077 25.5V26.8077ZM18.3077 21.5769C18.3077 22.2988 17.7218 22.8846 17 22.8846C16.2782 22.8846 15.6923 22.2988 15.6923 21.5769V7.19231C15.6923 6.47046 16.2782 5.88462 17 5.88462C17.7218 5.88462 18.3077 6.47046 18.3077 7.19231V21.5769Z" fill="#FFD968"/>
</svg>
